<svg id="Слой_1" xmlns="http://www.w3.org/2000/svg" viewBox="0 0 200 210"><style>.st0{fill:#fff}</style><path class="st0" d="M194 1h6v8c-.3.8-.7 1.5-.9 2.3-3.7 19.2-7.2 38.4-11.2 57.5-1.5 7.4-1.3 14.5-.2 22 1.9 12.9 4 26.3 2.4 39-4.1 34-23.6 58-54.1 72.2-30.4 14.2-59.7 8.1-86.6-10.3-19.4-13.2-33.5-30.8-38.1-54.3-3.5-18-1-36 2.7-53.7.5-2.2.7-4.6.3-6.8-4-22-8-44-12.2-65.9C1.3 6.2 2 2.7 7 1h1c21.6 8.4 43.1 16.8 64.7 25.1 1.2.5 2.9.1 4.2-.4 16.1-6.3 32-5.7 47.9.6 1.6.7 4 .7 5.6 0C151.7 18.1 172.9 9.5 194 1z"/></svg>
