<?xml version="1.0" encoding="utf-8"?>
<!-- Generator: Adobe Illustrator 21.0.0, SVG Export Plug-In . SVG Version: 6.00 Build 0)  -->
<svg version="1.1" id="Слой_1" xmlns="http://www.w3.org/2000/svg" xmlns:xlink="http://www.w3.org/1999/xlink" x="0px" y="0px"
	 viewBox="0 0 200 210" style="enable-background:new 0 0 200 210;" xml:space="preserve">
<style type="text/css">
	.st0{fill:#FFFFFF;}
</style>
<g>
	<path class="st0" d="M194,1c2,0,4,0,6,0c0,2.7,0,5.3,0,8c-0.3,0.8-0.7,1.5-0.9,2.3c-3.7,19.2-7.2,38.4-11.2,57.5
		c-1.5,7.4-1.3,14.5-0.2,22c1.9,12.9,4,26.3,2.4,39c-4.1,34-23.6,58-54.1,72.2c-30.4,14.2-59.7,8.1-86.6-10.3
		c-19.4-13.2-33.5-30.8-38.1-54.3c-3.5-18-1-36,2.7-53.7c0.5-2.2,0.7-4.6,0.3-6.8c-4-22-8-44-12.2-65.9C1.3,6.2,2,2.7,7,1
		c0.3,0,0.7,0,1,0c21.6,8.4,43.1,16.8,64.7,25.1c1.2,0.5,2.9,0.1,4.2-0.4c16.1-6.3,32-5.7,47.9,0.6c1.6,0.7,4,0.7,5.6,0
		C151.7,18.1,172.9,9.5,194,1z"/>
</g>
</svg>
